<svg width="338.7" height="109.5" viewBox="0 0 338.7 109.5" xmlns="http://www.w3.org/2000/svg"><g id="svgGroup" stroke-linecap="round" fill-rule="evenodd" font-size="9" stroke="#000" stroke-width="0.25" fill="black" style="stroke:#000;stroke-width:0.25;fill:black"><path d="M 317.5 50.9 L 318.1 42.7 A 63.695 63.695 0 0 0 315.651 48.026 A 69.862 69.862 0 0 0 315.5 48.4 Q 314.581 50.697 314.014 52.232 A 63.59 63.59 0 0 0 313.7 53.1 A 7.822 7.822 0 0 1 313.64 53.371 Q 313.502 53.95 313.15 55.2 Q 312.7 56.8 312.15 58.75 Q 311.6 60.7 311.2 62.6 A 25.185 25.185 0 0 0 310.989 63.719 Q 310.806 64.838 310.8 65.646 A 7.339 7.339 0 0 0 310.8 65.7 A 0.615 0.615 0 0 1 310.657 66.083 Q 310.441 66.359 309.9 66.6 A 4.153 4.153 0 0 1 309.086 66.859 Q 308.677 66.947 308.199 66.98 A 8.69 8.69 0 0 1 307.6 67 A 13.136 13.136 0 0 1 306.253 66.935 Q 305.593 66.867 305.041 66.727 A 5.444 5.444 0 0 1 304.1 66.4 Q 302.8 65.8 302.15 64.45 A 6.849 6.849 0 0 1 301.718 63.266 Q 301.441 62.241 301.35 60.9 A 57.324 57.324 0 0 1 301.259 59.123 Q 301.229 58.33 301.215 57.45 A 111.425 111.425 0 0 1 301.2 55.6 L 301.2 48.1 Q 301.2 47.3 301.15 46.5 A 3.497 3.497 0 0 0 301.116 46.179 Q 301.065 45.854 300.956 45.671 A 0.523 0.523 0 0 0 300.8 45.5 A 0.618 0.618 0 0 0 300.569 45.693 Q 300.151 46.207 299.59 47.973 A 29.23 29.23 0 0 0 299.55 48.1 A 38.184 38.184 0 0 0 299.002 50.048 Q 298.556 51.794 298.15 53.95 Q 297.5 57.4 297 61.2 A 64.59 64.59 0 0 0 296.658 64.372 Q 296.53 65.949 296.506 67.358 A 37.542 37.542 0 0 0 296.5 68 A 1.553 1.553 0 0 1 296.419 68.521 Q 296.254 68.985 295.755 69.188 A 1.978 1.978 0 0 1 295.35 69.3 A 13.195 13.195 0 0 1 294.017 69.459 A 17.344 17.344 0 0 1 292.8 69.5 Q 292.4 69.5 291.45 69.35 Q 290.5 69.2 289.55 69 A 9.427 9.427 0 0 1 288.318 68.655 A 8.063 8.063 0 0 1 287.8 68.45 A 3.184 3.184 0 0 1 287.402 68.244 Q 286.945 67.961 286.8 67.6 A 6.97 6.97 0 0 1 286.545 66.762 Q 286.318 65.835 286.161 64.438 A 39.055 39.055 0 0 1 286.05 63.3 Q 285.8 60.3 285.8 54 A 217.737 217.737 0 0 1 285.821 51.056 Q 285.839 49.759 285.871 48.345 A 377.39 377.39 0 0 1 285.95 45.4 Q 286.053 42.031 286.18 37.859 A 50878.955 50878.955 0 0 0 286.3 33.9 Q 286.3 33.02 286.204 31.614 A 67.125 67.125 0 0 0 286.2 31.55 A 237.943 237.943 0 0 1 286.166 31.05 Q 286.1 30.062 286.1 29.9 A 1.473 1.473 0 0 1 286.138 29.552 Q 286.257 29.064 286.75 28.95 Q 287.25 28.835 287.543 28.808 A 1.754 1.754 0 0 1 287.7 28.8 A 8.074 8.074 0 0 1 288.31 28.825 Q 288.786 28.861 289.35 28.95 Q 290.3 29.1 291.25 29.3 A 20.793 20.793 0 0 1 292.325 29.555 A 16.666 16.666 0 0 1 293 29.75 A 11.01 11.01 0 0 1 293.369 29.872 Q 293.875 30.05 294.1 30.2 L 294.1 54.3 A 859.542 859.542 0 0 0 294.566 52.426 Q 294.884 51.141 295.25 49.65 Q 295.9 47 296.75 44.4 A 49.976 49.976 0 0 1 297.871 41.306 A 41.481 41.481 0 0 1 298.6 39.6 A 16.122 16.122 0 0 1 299.235 38.342 Q 299.944 37.087 300.7 36.4 A 1.375 1.375 0 0 1 300.978 36.244 Q 301.407 36.058 302.2 35.95 A 21.729 21.729 0 0 1 302.848 35.871 Q 303.516 35.8 303.996 35.8 A 4.496 4.496 0 0 1 304 35.8 Q 304.34 35.8 304.795 35.869 A 9.989 9.989 0 0 1 305.25 35.95 Q 306 36.1 306.7 36.4 A 5.278 5.278 0 0 1 307.757 37 A 4.827 4.827 0 0 1 307.95 37.15 Q 308.5 37.6 308.6 38.2 L 308.6 54.4 L 308.6 55.3 Q 308.6 55.744 308.71 55.86 A 0.121 0.121 0 0 0 308.8 55.9 A 0.166 0.166 0 0 0 308.896 55.813 Q 309.153 55.44 309.854 53.472 A 80.477 80.477 0 0 0 309.95 53.2 A 11458.66 11458.66 0 0 0 310.712 51.034 Q 311.05 50.073 311.422 49.015 A 21167.435 21167.435 0 0 0 312.2 46.8 Q 313.5 43.1 315 39.2 Q 316.467 35.386 317.647 33.103 A 28.941 28.941 0 0 1 317.7 33 A 0.528 0.528 0 0 1 317.91 32.789 Q 318.25 32.585 319.05 32.55 A 58.477 58.477 0 0 1 320.008 32.516 Q 320.447 32.504 320.842 32.501 A 34.332 34.332 0 0 1 321.1 32.5 A 3.021 3.021 0 0 1 321.585 32.544 Q 322.09 32.626 322.77 32.866 A 12.431 12.431 0 0 1 323 32.95 A 10.398 10.398 0 0 1 324.881 33.889 A 12.013 12.013 0 0 1 325.35 34.2 A 10.535 10.535 0 0 1 327.119 35.738 A 9.687 9.687 0 0 1 327.35 36 A 3.955 3.955 0 0 1 327.892 36.813 A 2.885 2.885 0 0 1 328.2 38.1 A 0.364 0.364 0 0 1 328.176 38.209 Q 328.08 38.489 327.6 39.25 A 6.063 6.063 0 0 0 326.985 40.518 A 5.293 5.293 0 0 0 326.8 41.2 A 36.891 36.891 0 0 0 325.901 46.193 A 33.755 33.755 0 0 0 325.85 46.7 Q 325.682 48.514 325.627 51.005 A 117.648 117.648 0 0 0 325.6 53.6 Q 325.6 55.4 325.75 57.2 Q 325.9 59 326.25 60.45 Q 326.525 61.588 326.954 62.388 A 5.028 5.028 0 0 0 327.2 62.8 A 2.222 2.222 0 0 0 327.683 63.331 A 1.771 1.771 0 0 0 328.8 63.7 Q 330.2 63.7 331.3 62.75 A 7.033 7.033 0 0 0 332.413 61.517 A 9.701 9.701 0 0 0 333.2 60.2 Q 333.975 58.65 334.562 56.584 A 28.984 28.984 0 0 0 334.6 56.45 Q 335.2 54.3 335.6 52 Q 335.935 50.391 336.63 49.86 A 1.237 1.237 0 0 1 337.4 49.6 A 2.48 2.48 0 0 1 337.755 49.623 Q 338.172 49.684 338.374 49.901 A 0.653 0.653 0 0 1 338.45 50 A 1.03 1.03 0 0 1 338.556 50.252 Q 338.681 50.676 338.698 51.533 A 14.075 14.075 0 0 1 338.7 51.8 A 10.096 10.096 0 0 1 338.694 52.158 Q 338.676 52.655 338.605 52.884 A 0.835 0.835 0 0 1 338.6 52.9 Q 338.5 54.2 337.75 56.95 A 30.538 30.538 0 0 1 335.988 61.741 A 34.278 34.278 0 0 1 335.65 62.45 A 18.773 18.773 0 0 1 332.968 66.525 A 17.292 17.292 0 0 1 332.3 67.25 A 7.195 7.195 0 0 1 330.506 68.615 A 5.937 5.937 0 0 1 327.7 69.3 A 10.88 10.88 0 0 1 325.467 69.083 Q 323.827 68.739 322.6 67.85 A 9.333 9.333 0 0 1 319.799 64.565 A 11.286 11.286 0 0 1 319.5 63.95 A 18.464 18.464 0 0 1 318.47 60.962 A 24.483 24.483 0 0 1 317.95 58.3 A 47.027 47.027 0 0 1 317.516 52.902 A 53.155 53.155 0 0 1 317.5 51.6 L 317.5 50.9 Z M 107.3 51.8 L 107.2 53.1 Q 107.116 54.269 106.58 56.241 A 41.801 41.801 0 0 1 106.35 57.05 Q 105.6 59.6 104.15 62.05 Q 102.7 64.5 100.45 66.35 A 8.102 8.102 0 0 1 95.833 68.167 A 10.456 10.456 0 0 1 95 68.2 A 8.644 8.644 0 0 1 92.861 67.95 A 6.118 6.118 0 0 1 90.05 66.4 A 9.538 9.538 0 0 1 88.339 64.108 Q 87.696 62.927 87.25 61.45 A 25.597 25.597 0 0 1 86.553 58.454 Q 86.282 56.899 86.135 55.122 A 47.587 47.587 0 0 1 86.05 53.9 Q 85.8 49.5 85.8 44.3 L 85.8 42.05 A 31.38 31.38 0 0 1 85.814 41.087 Q 85.829 40.611 85.859 40.188 A 16.889 16.889 0 0 1 85.9 39.7 A 28.412 28.412 0 0 0 85 41.512 Q 84.532 42.538 84.064 43.739 A 58.545 58.545 0 0 0 83.5 45.25 A 72.863 72.863 0 0 0 81.841 50.526 A 84.163 84.163 0 0 0 81.35 52.4 Q 80.4 56.2 79.8 60.15 A 66.162 66.162 0 0 0 79.245 64.912 A 54.256 54.256 0 0 0 79.1 67.6 Q 78.1 67.8 76.95 68.1 A 8.824 8.824 0 0 1 75.733 68.323 Q 75.062 68.4 74.3 68.4 A 8.641 8.641 0 0 1 73.822 68.386 Q 73.4 68.362 72.9 68.3 A 6.991 6.991 0 0 1 71.4 67.937 A 7.738 7.738 0 0 1 71.3 67.9 A 3.94 3.94 0 0 1 70.378 67.413 A 3.462 3.462 0 0 1 69.95 67.05 A 1.846 1.846 0 0 1 69.43 66.003 A 2.585 2.585 0 0 1 69.4 65.6 A 0.48 0.48 0 0 1 69.416 65.49 Q 69.476 65.248 69.75 64.7 Q 70.1 64 70.1 61.9 L 70.1 4.4 A 8.784 8.784 0 0 0 70.079 3.775 Q 70.038 3.192 69.911 2.828 A 1.339 1.339 0 0 0 69.75 2.5 A 1.925 1.925 0 0 1 69.423 1.648 A 2.521 2.521 0 0 1 69.4 1.3 Q 69.4 0.939 69.97 0.7 A 2.598 2.598 0 0 1 70.1 0.65 Q 70.8 0.4 71.7 0.25 Q 72.6 0.1 73.55 0.05 Q 74.5 0 75.1 0 A 13.341 13.341 0 0 1 78.973 0.593 A 16.213 16.213 0 0 1 80.4 1.1 A 54.108 54.108 0 0 0 80.092 2.958 Q 79.759 5.191 79.45 8.25 A 544.869 544.869 0 0 0 78.701 16.267 A 598.973 598.973 0 0 0 78.6 17.45 Q 78.2 22.2 78 26.55 Q 77.847 29.88 77.811 32.068 A 75.536 75.536 0 0 0 77.8 33.3 L 77.8 34.05 Q 77.8 34.471 77.756 36.118 A 524.524 524.524 0 0 1 77.75 36.35 Q 77.701 38.166 77.652 41.959 A 1141.287 1141.287 0 0 0 77.65 42.1 Q 77.6 46 77.5 53.1 Q 77.5 53 77.95 51.2 Q 78.4 49.4 79.1 46.7 Q 79.8 44 80.75 40.9 A 82.169 82.169 0 0 1 81.977 37.201 A 67.677 67.677 0 0 1 82.75 35.15 A 36.429 36.429 0 0 1 83.545 33.289 Q 84.213 31.844 84.9 30.75 A 7.847 7.847 0 0 1 85.376 30.068 Q 85.911 29.39 86.421 29.143 A 1.318 1.318 0 0 1 87 29 A 7.527 7.527 0 0 1 87.749 29.042 Q 88.51 29.118 89.536 29.336 A 29.414 29.414 0 0 1 90.05 29.45 A 6.509 6.509 0 0 1 90.959 29.725 Q 92.129 30.184 92.5 31 A 9.516 9.516 0 0 0 92.729 31.62 Q 92.971 32.205 93.229 32.552 A 2.073 2.073 0 0 0 93.35 32.7 A 12.632 12.632 0 0 0 93.673 33.047 Q 93.931 33.312 94.15 33.5 Q 94.5 33.8 94.75 34.1 Q 95 34.4 95 35 A 2.717 2.717 0 0 0 94.954 35.162 Q 94.834 35.619 94.55 37 Q 94.311 38.162 94.071 39.721 A 97.678 97.678 0 0 0 93.85 41.25 Q 93.5 43.8 93.2 46.85 Q 92.9 49.9 92.9 52.9 A 38.539 38.539 0 0 0 93.016 55.968 Q 93.184 58.078 93.6 59.8 Q 93.928 61.16 94.543 61.882 A 2.209 2.209 0 0 0 96.3 62.7 A 5.469 5.469 0 0 0 97.863 62.486 A 4.355 4.355 0 0 0 99.6 61.5 A 9.126 9.126 0 0 0 101.236 59.465 A 11.129 11.129 0 0 0 101.75 58.5 A 18.04 18.04 0 0 0 103.048 54.658 A 19.374 19.374 0 0 0 103.05 54.65 A 151.292 151.292 0 0 0 103.415 52.942 Q 103.577 52.161 103.713 51.459 A 87.26 87.26 0 0 0 103.8 51 A 7.302 7.302 0 0 1 104.014 50.26 Q 104.27 49.537 104.617 49.199 A 0.957 0.957 0 0 1 105.3 48.9 A 2.351 2.351 0 0 1 105.896 48.971 A 1.48 1.48 0 0 1 106.85 49.7 A 3.176 3.176 0 0 1 107.157 50.492 Q 107.246 50.851 107.28 51.272 A 6.645 6.645 0 0 1 107.3 51.8 Z M 35.4 50.8 L 34.9 50.5 Q 34.763 52.15 34.601 54.296 A 794.379 794.379 0 0 0 34.45 56.35 Q 34.2 59.8 34.2 64 L 34.2 65.2 A 8.6 8.6 0 0 0 34.212 65.668 Q 34.224 65.893 34.249 66.094 A 5.169 5.169 0 0 0 34.25 66.1 Q 34.3 66.5 34.3 66.9 L 34.3 68 A 4.682 4.682 0 0 0 34.622 69.684 A 5.749 5.749 0 0 0 34.85 70.2 A 26.277 26.277 0 0 1 35.037 70.581 Q 35.371 71.277 35.398 71.47 A 0.22 0.22 0 0 1 35.4 71.5 Q 35.4 72.306 34.438 72.51 A 2.837 2.837 0 0 1 34.2 72.55 A 63.01 63.01 0 0 1 33.782 72.601 Q 32.993 72.694 32.731 72.7 A 1.479 1.479 0 0 1 32.7 72.7 Q 31.022 72.7 29.823 72.367 A 5.433 5.433 0 0 1 28.65 71.9 A 3.34 3.34 0 0 1 27.596 70.953 Q 26.958 70.101 26.553 68.69 A 11.78 11.78 0 0 1 26.5 68.5 A 17.749 17.749 0 0 1 26.133 66.749 Q 25.755 64.43 25.65 60.95 Q 25.516 56.522 25.502 49.494 A 841.464 841.464 0 0 1 25.5 47.8 A 292.311 292.311 0 0 1 25.669 37.731 A 261.412 261.412 0 0 1 25.8 34.5 Q 26.1 28.1 26.55 22.85 Q 27 17.6 27.45 13.75 Q 27.795 10.802 28.051 8.998 A 66.264 66.264 0 0 1 28.2 8 Q 27.116 8.181 25.42 8.729 A 41.905 41.905 0 0 0 25.05 8.85 Q 23.1 9.5 20.9 10.4 A 51.978 51.978 0 0 0 17.544 11.919 A 59.279 59.279 0 0 0 16.4 12.5 Q 14.1 13.7 12.25 15 Q 10.563 16.186 9.458 17.413 A 11.477 11.477 0 0 0 9.25 17.65 Q 8.414 18.632 8.186 19.587 A 3.061 3.061 0 0 0 8.1 20.3 L 9.8 25.9 A 5.649 5.649 0 0 1 9.765 26.503 Q 9.697 27.13 9.5 27.95 Q 9.264 28.934 8.346 29.143 A 2.457 2.457 0 0 1 7.8 29.2 Q 6.916 29.2 6.14 29.054 A 6.492 6.492 0 0 1 4.35 28.45 A 7.964 7.964 0 0 1 2.662 27.293 A 7.041 7.041 0 0 1 1.95 26.55 A 8.962 8.962 0 0 1 0.703 24.582 A 8.238 8.238 0 0 1 0.5 24.1 A 8.283 8.283 0 0 1 0.158 23.001 Q 0.02 22.404 0.002 21.856 A 4.935 4.935 0 0 1 0 21.7 A 8.836 8.836 0 0 1 1.474 16.84 A 11.463 11.463 0 0 1 2.15 15.9 A 20.353 20.353 0 0 1 5.161 12.87 A 26.497 26.497 0 0 1 7.75 11 A 44.986 44.986 0 0 1 12.182 8.529 A 56.415 56.415 0 0 1 15.6 7 Q 20 5.2 24.5 4 A 88.381 88.381 0 0 1 30.522 2.61 A 75.698 75.698 0 0 1 33.15 2.15 Q 37.3 1.5 40.3 1.5 Q 43.8 1.5 47.25 1.95 A 20.927 20.927 0 0 1 52.823 3.506 A 24.424 24.424 0 0 1 54.1 4.1 A 13.911 13.911 0 0 1 57.955 6.897 A 12.746 12.746 0 0 1 59.65 9.1 A 27.518 27.518 0 0 1 61.677 13.1 A 23.057 23.057 0 0 1 62.5 15.5 A 35.005 35.005 0 0 1 63.126 18.075 Q 63.463 19.755 63.55 21.2 Q 63.7 23.7 63.7 24.2 Q 63.7 29.7 61.85 34.85 A 32.161 32.161 0 0 1 57.86 42.591 A 29.734 29.734 0 0 1 56.8 44 Q 53.6 48 49.35 50.45 Q 45.1 52.9 40.3 52.9 A 4.725 4.725 0 0 1 38.575 52.564 A 5.951 5.951 0 0 1 37.9 52.25 A 49.763 49.763 0 0 1 36.203 51.285 A 58.797 58.797 0 0 1 35.4 50.8 Z M 218.3 71.7 L 216.3 71.5 A 0.589 0.589 0 0 0 216.084 71.536 Q 215.827 71.637 215.803 72.017 A 1.292 1.292 0 0 0 215.8 72.1 L 215.7 73.3 Q 215.8 76 215.8 80.1 L 215.8 88 Q 215.8 92 215.55 95.85 Q 215.3 99.7 214.4 102.75 A 15.998 15.998 0 0 1 213.545 105.03 Q 212.83 106.552 211.85 107.65 A 5.415 5.415 0 0 1 208.591 109.398 A 7.864 7.864 0 0 1 207.3 109.5 A 55.815 55.815 0 0 1 203.493 109.365 A 64.781 64.781 0 0 1 202.05 109.25 A 16.83 16.83 0 0 1 198.81 108.645 A 14.238 14.238 0 0 1 197.05 108 Q 194.8 107 193.35 105.05 A 6.84 6.84 0 0 1 192.265 102.773 Q 192.003 101.827 191.929 100.705 A 13.779 13.779 0 0 1 191.9 99.8 A 31.311 31.311 0 0 1 192.474 93.91 A 34.997 34.997 0 0 1 192.65 93.05 Q 193.4 89.6 194.8 86.35 Q 196.2 83.1 198.15 80.15 Q 200.1 77.2 202.4 74.9 Q 203.6 73.7 205.05 72.45 A 55.093 55.093 0 0 1 206.088 71.576 Q 206.913 70.9 207.6 70.4 L 207.6 70.3 Q 207.8 68.2 207.9 66.1 Q 208 64 208 61.8 A 20.059 20.059 0 0 0 207.668 62.426 Q 207.307 63.134 206.863 64.11 A 66.005 66.005 0 0 0 206.8 64.25 Q 206.1 65.8 205.15 67.2 Q 204.2 68.6 203 69.65 Q 201.8 70.7 200.3 70.7 A 3.613 3.613 0 0 1 199.594 70.634 A 2.74 2.74 0 0 1 198.9 70.4 A 2.356 2.356 0 0 0 198.428 70.229 Q 197.922 70.1 197.2 70.1 Q 194.504 69.907 192.689 68.695 A 7.097 7.097 0 0 1 192.55 68.6 A 8.353 8.353 0 0 1 190.148 65.958 A 10.413 10.413 0 0 1 189.65 65 Q 188.666 62.844 188.253 59.94 A 26.225 26.225 0 0 1 188.2 59.55 Q 187.8 56.4 187.8 52.5 A 87.603 87.603 0 0 1 188.221 44.045 A 97.167 97.167 0 0 1 188.35 42.8 A 47.347 47.347 0 0 1 189.303 37.162 A 38.481 38.481 0 0 1 190.3 33.65 Q 191.7 29.5 194.05 26.85 A 7.559 7.559 0 0 1 199.555 24.21 A 9.475 9.475 0 0 1 200 24.2 A 1.435 1.435 0 0 1 200.274 24.229 Q 200.557 24.285 200.927 24.445 A 5.689 5.689 0 0 1 201.05 24.5 Q 201.7 24.8 202.45 25.15 L 203.95 25.85 Q 204.7 26.2 205.1 26.3 A 29.031 29.031 0 0 1 207.483 26.878 A 24.123 24.123 0 0 1 208.8 27.3 A 11.267 11.267 0 0 1 210.454 28.03 A 8.792 8.792 0 0 1 211.7 28.85 A 6.327 6.327 0 0 1 213.27 30.701 A 7.731 7.731 0 0 1 213.6 31.35 A 7.298 7.298 0 0 1 214.091 32.909 Q 214.241 33.652 214.283 34.51 A 14.017 14.017 0 0 1 214.3 35.2 Q 214.3 36.8 214.05 38.1 A 11.941 11.941 0 0 0 213.903 39.125 Q 213.851 39.622 213.826 40.191 A 26.913 26.913 0 0 0 213.8 41.4 A 1.655 1.655 0 0 0 213.847 41.81 A 1.018 1.018 0 0 0 214.4 42.5 A 6.54 6.54 0 0 0 215.198 42.832 A 8.161 8.161 0 0 0 215.75 43 Q 216.5 43.2 217.1 43.45 A 0.908 0.908 0 0 1 217.653 44.094 Q 217.7 44.275 217.7 44.5 Q 217.7 44.699 217.256 45.44 A 14.416 14.416 0 0 1 217.25 45.45 A 71.685 71.685 0 0 0 217.094 45.712 Q 216.806 46.196 216.714 46.372 A 1.944 1.944 0 0 0 216.7 46.4 A 5.082 5.082 0 0 0 216.539 46.925 Q 216.344 47.692 216.2 48.95 Q 216 50.7 215.9 52.75 Q 215.8 54.8 215.75 56.95 A 201.062 201.062 0 0 0 215.714 58.867 Q 215.702 59.768 215.7 60.572 A 118.722 118.722 0 0 0 215.7 60.8 L 215.7 64.25 Q 215.7 66.293 215.79 67.659 A 26.752 26.752 0 0 0 215.8 67.8 L 216.2 67.8 Q 216.4 67.8 216.6 67.75 Q 216.758 67.711 216.854 67.702 A 0.541 0.541 0 0 1 216.9 67.7 A 4.09 4.09 0 0 1 217.522 67.753 Q 218.174 67.854 219.054 68.148 A 16.731 16.731 0 0 1 219.35 68.25 Q 220.119 68.523 220.507 68.931 A 1.363 1.363 0 0 1 220.9 69.9 A 1.71 1.71 0 0 1 220.805 70.485 Q 220.637 70.951 220.167 71.216 A 1.953 1.953 0 0 1 220 71.3 A 5.037 5.037 0 0 1 219.205 71.58 A 3.645 3.645 0 0 1 218.3 71.7 Z M 135 50.1 L 135 49.2 Q 135.1 44.1 135.3 38.8 Q 135.5 33.5 135.7 29 A 0.766 0.766 0 0 0 135.388 28.391 Q 134.994 28.068 134.1 27.9 A 85.557 85.557 0 0 0 132.414 27.602 Q 131.522 27.454 130.531 27.305 A 137.526 137.526 0 0 0 130.5 27.3 A 17.551 17.551 0 0 1 128.404 26.86 A 13.84 13.84 0 0 1 126.9 26.35 A 3.281 3.281 0 0 1 126.136 25.924 Q 125.3 25.284 125.3 24.2 A 1.123 1.123 0 0 1 125.89 23.211 Q 126.394 22.895 127.329 22.762 A 8.832 8.832 0 0 1 127.9 22.7 Q 129.891 22.547 133.347 22.511 A 217.607 217.607 0 0 1 135.6 22.5 Q 136 22.5 136.15 21.3 Q 136.251 20.494 136.306 19.394 A 48.786 48.786 0 0 0 136.35 18.25 Q 136.4 16.4 136.45 14.3 Q 136.5 12.2 136.6 10.35 Q 136.7 8.5 136.95 7.3 A 5.864 5.864 0 0 1 137.047 6.9 Q 137.273 6.1 137.6 6.1 A 4.236 4.236 0 0 1 137.889 6.112 Q 138.364 6.145 139.214 6.272 A 42.444 42.444 0 0 1 139.4 6.3 A 28.864 28.864 0 0 1 141.406 6.684 A 33.175 33.175 0 0 1 142.1 6.85 Q 143.489 7.197 144.533 7.692 A 9.531 9.531 0 0 1 144.55 7.7 A 3.837 3.837 0 0 1 144.959 7.924 Q 145.6 8.331 145.6 8.8 L 144.5 21.8 A 0.637 0.637 0 0 0 144.754 22.306 Q 145.017 22.523 145.55 22.65 Q 146.264 22.82 147.255 22.897 A 20.916 20.916 0 0 0 148.25 22.95 Q 149.9 23 151.75 23 A 20.384 20.384 0 0 1 154.306 23.155 A 17.639 17.639 0 0 1 155.25 23.3 A 10.343 10.343 0 0 1 156.448 23.588 Q 157.041 23.771 157.528 24.015 A 5.375 5.375 0 0 1 157.95 24.25 A 2.181 2.181 0 0 1 158.699 24.995 Q 158.944 25.409 158.989 25.946 A 2.991 2.991 0 0 1 159 26.2 Q 159 26.393 158.813 26.819 A 5.765 5.765 0 0 1 158.8 26.85 A 1.354 1.354 0 0 1 158.702 27.035 Q 158.53 27.3 158.3 27.3 A 0.381 0.381 0 0 1 158.176 27.276 Q 158.002 27.216 157.75 27 A 0.749 0.749 0 0 0 157.523 26.876 Q 157.132 26.731 156.282 26.705 A 12.795 12.795 0 0 0 155.9 26.7 A 7.386 7.386 0 0 0 155.701 26.704 Q 155.205 26.718 153.926 26.788 A 271.127 271.127 0 0 0 153.7 26.8 A 82.185 82.185 0 0 0 151.13 26.985 A 96.638 96.638 0 0 0 149.9 27.1 Q 147.9 27.3 146.25 27.55 A 11.883 11.883 0 0 0 145.682 27.649 Q 144.856 27.816 144.551 28.036 A 0.471 0.471 0 0 0 144.4 28.2 A 0.61 0.61 0 0 0 144.362 28.335 Q 144.273 28.786 144.15 30.547 A 82.966 82.966 0 0 0 144.15 30.55 Q 144.016 32.473 143.882 35.477 A 399.241 399.241 0 0 0 143.85 36.2 A 312.43 312.43 0 0 0 143.728 39.463 Q 143.674 41.134 143.629 42.991 A 539.843 539.843 0 0 0 143.6 44.25 A 420.265 420.265 0 0 0 143.506 51.328 A 483.304 483.304 0 0 0 143.5 53.8 Q 143.5 55.7 143.7 57.5 Q 143.9 59.3 144.3 60.75 Q 144.624 61.924 145.112 62.737 A 5.085 5.085 0 0 0 145.35 63.1 A 2.668 2.668 0 0 0 145.781 63.575 A 1.685 1.685 0 0 0 146.9 64 A 3.069 3.069 0 0 0 148.647 63.444 A 4.447 4.447 0 0 0 149.3 62.9 A 8.26 8.26 0 0 0 150.224 61.784 Q 150.794 60.969 151.3 59.9 A 25.944 25.944 0 0 0 152.249 57.604 A 33.656 33.656 0 0 0 152.9 55.6 Q 153.6 53.2 154.1 50.7 A 14.375 14.375 0 0 1 154.256 50.003 Q 154.437 49.286 154.649 48.832 A 2.816 2.816 0 0 1 154.8 48.55 A 1.351 1.351 0 0 1 155.245 48.094 Q 155.503 47.936 155.84 47.907 A 1.827 1.827 0 0 1 156 47.9 Q 156.7 47.9 157.25 48.35 Q 157.686 48.707 157.776 49.788 A 7.393 7.393 0 0 1 157.8 50.4 A 15.726 15.726 0 0 1 157.795 50.804 Q 157.781 51.354 157.725 51.609 A 0.918 0.918 0 0 1 157.7 51.7 Q 157.47 53.078 156.918 55.248 A 101.107 101.107 0 0 1 156.55 56.65 Q 155.7 59.8 154.25 62.85 A 22.335 22.335 0 0 1 151.709 67.003 A 20.01 20.01 0 0 1 150.7 68.2 A 7.594 7.594 0 0 1 148.897 69.678 A 6.088 6.088 0 0 1 145.8 70.5 A 7.9 7.9 0 0 1 142.984 70.01 A 7.244 7.244 0 0 1 141.1 68.95 Q 139.1 67.4 137.75 64.65 Q 136.442 61.986 135.744 58.383 A 35.011 35.011 0 0 1 135.7 58.15 A 41.413 41.413 0 0 1 135.072 52.798 A 49.705 49.705 0 0 1 135 50.1 Z M 227.6 39 L 227.2 42.2 Q 226.8 45.4 226.35 48.35 A 74.773 74.773 0 0 1 225.937 50.797 Q 225.729 51.913 225.503 52.903 A 43.227 43.227 0 0 1 225.35 53.55 A 21.768 21.768 0 0 1 224.948 54.991 Q 224.726 55.687 224.478 56.268 A 9.493 9.493 0 0 1 224.05 57.15 Q 223.652 57.867 223.183 58.203 A 1.488 1.488 0 0 1 222.3 58.5 L 222.2 58.5 Q 221.8 58.5 221.45 58.3 A 0.549 0.549 0 0 1 221.237 58.066 Q 221.13 57.859 221.107 57.511 A 3.117 3.117 0 0 1 221.1 57.3 Q 221.1 56.9 221.3 56.1 Q 221.838 53.748 222.104 51.939 A 27.856 27.856 0 0 0 222.3 50.3 A 163.238 163.238 0 0 0 222.456 48.383 Q 222.522 47.505 222.57 46.716 A 95.556 95.556 0 0 0 222.6 46.2 L 222.6 45.5 A 12.414 12.414 0 0 1 222.607 45.097 Q 222.614 44.872 222.629 44.617 A 24.923 24.923 0 0 1 222.65 44.3 Q 222.684 43.819 222.695 43.196 A 34.618 34.618 0 0 0 222.7 42.6 L 222.7 40 L 222.7 37.7 A 16.57 16.57 0 0 0 222.637 36.287 A 21.202 21.202 0 0 0 222.5 35.1 L 222.2 29.2 A 1.42 1.42 0 0 1 222.47 28.373 A 2.025 2.025 0 0 1 222.7 28.1 Q 223.169 27.631 223.901 27.25 A 6.988 6.988 0 0 1 224 27.2 Q 224.8 26.8 225.7 26.6 Q 226.472 26.429 227.096 26.404 A 5.209 5.209 0 0 1 227.3 26.4 Q 228.804 26.4 228.977 28.122 A 4.78 4.78 0 0 1 229 28.6 L 229 29.1 L 228.9 31.3 L 228.9 31.9 A 2.508 2.508 0 0 0 228.914 32.178 Q 228.946 32.458 229.047 32.61 A 0.398 0.398 0 0 0 229.2 32.75 A 1.719 1.719 0 0 0 229.374 32.823 Q 229.678 32.935 230.27 33.071 A 19.43 19.43 0 0 0 230.4 33.1 L 230.7 33.1 Q 231.47 33.196 233.167 33.293 A 113.551 113.551 0 0 0 233.3 33.3 Q 235.1 33.4 236.9 33.7 A 13.607 13.607 0 0 1 238.563 34.08 A 10.091 10.091 0 0 1 240.05 34.65 A 3.198 3.198 0 0 1 240.687 35.047 A 1.802 1.802 0 0 1 241.4 36.5 A 2.274 2.274 0 0 1 241.384 36.753 Q 241.353 37.027 241.262 37.407 A 10.268 10.268 0 0 1 241.2 37.65 Q 241 38.4 240.7 39.15 Q 240.4 39.9 240.2 40.5 Q 240 41.1 240 41.3 Q 238.2 48.2 238.2 55.7 A 12.219 12.219 0 0 0 238.205 56.036 Q 238.219 56.525 238.267 57.358 A 115.353 115.353 0 0 0 238.3 57.9 A 29.123 29.123 0 0 0 238.611 60.671 A 32.595 32.595 0 0 0 238.7 61.2 Q 239 62.9 239.6 64.2 A 3.856 3.856 0 0 0 239.898 64.738 Q 240.074 65 240.271 65.172 A 1.233 1.233 0 0 0 241.1 65.5 Q 242.6 65.5 243.8 63.65 Q 245 61.8 245.9 59.35 Q 246.8 56.9 247.35 54.4 Q 247.9 51.9 248.1 50.7 A 4.939 4.939 0 0 1 248.199 50.259 Q 248.326 49.805 248.514 49.561 A 0.779 0.779 0 0 1 248.75 49.35 Q 249.15 49.128 249.511 49.103 A 1.309 1.309 0 0 1 249.6 49.1 A 1.531 1.531 0 0 1 250.229 49.22 Q 250.882 49.511 250.982 50.514 A 3.896 3.896 0 0 1 251 50.9 Q 251 51.087 250.956 51.843 A 114.84 114.84 0 0 1 250.95 51.95 Q 250.9 52.8 250.8 53.2 A 4.337 4.337 0 0 1 250.784 53.531 Q 250.716 54.397 250.35 56.55 A 25.807 25.807 0 0 1 249.622 59.626 A 33.052 33.052 0 0 1 248.75 62.15 Q 247.6 65.1 245.65 67.4 A 6.454 6.454 0 0 1 243.379 69.152 A 6.436 6.436 0 0 1 240.7 69.7 A 7.336 7.336 0 0 1 238.325 69.332 A 6.081 6.081 0 0 1 235.6 67.45 A 14.832 14.832 0 0 1 233.295 63.66 A 18.063 18.063 0 0 1 232.7 62.05 Q 231.7 58.9 231.4 55.45 A 99.647 99.647 0 0 1 231.223 53.119 Q 231.1 51.173 231.1 49.7 Q 231.1 47.1 231.4 44.45 Q 231.7 41.8 231.8 39.2 A 1.194 1.194 0 0 0 231.737 38.797 Q 231.575 38.344 231 38.2 A 6.945 6.945 0 0 0 230.155 38.041 A 5.426 5.426 0 0 0 229.5 38 A 7.459 7.459 0 0 0 229.026 38.014 Q 228.236 38.064 228 38.3 Q 227.7 38.6 227.6 39 Z M 277.7 43.7 L 277.7 44.1 Q 276.934 46.091 276.638 47.73 A 12.356 12.356 0 0 0 276.5 48.7 Q 276.347 50.231 276.311 52.231 A 70.774 70.774 0 0 0 276.3 53.5 A 30.297 30.297 0 0 0 276.347 55.154 A 38.972 38.972 0 0 0 276.45 56.55 A 22.604 22.604 0 0 0 276.751 58.724 A 19.326 19.326 0 0 0 276.95 59.65 Q 277.3 61.1 278 62.05 Q 278.7 63 279.8 63 Q 280.96 63 281.887 61.878 A 4.856 4.856 0 0 0 281.95 61.8 A 11.312 11.312 0 0 0 283.251 59.711 A 13.184 13.184 0 0 0 283.55 59.05 Q 284.2 57.5 284.65 55.9 Q 285.007 54.632 285.143 53.867 A 7.118 7.118 0 0 0 285.2 53.5 A 2.811 2.811 0 0 1 285.311 53.047 Q 285.389 52.822 285.5 52.665 A 0.815 0.815 0 0 1 286.2 52.3 Q 286.618 52.3 287.001 52.685 A 2.278 2.278 0 0 1 287.15 52.85 Q 287.532 53.317 287.59 54.396 A 7.569 7.569 0 0 1 287.6 54.8 L 287.6 55.55 A 3.098 3.098 0 0 1 287.586 55.834 Q 287.572 55.984 287.544 56.156 A 6.671 6.671 0 0 1 287.5 56.4 A 9.601 9.601 0 0 1 287.266 57.52 Q 287 58.512 286.5 59.7 Q 285.7 61.6 284.45 63.35 A 12.85 12.85 0 0 1 281.601 66.262 A 12.237 12.237 0 0 1 281.55 66.3 Q 279.9 67.5 277.9 67.5 A 7.041 7.041 0 0 1 272.934 65.479 A 9.35 9.35 0 0 1 272.65 65.2 A 8.937 8.937 0 0 1 270.753 62.22 Q 270.134 60.669 269.9 58.7 A 608.805 608.805 0 0 1 269.337 60.196 Q 269.047 60.963 268.721 61.819 A 1077.467 1077.467 0 0 1 268.5 62.4 Q 267.7 64.5 266.5 66.3 A 13.937 13.937 0 0 1 264.526 68.669 A 12.452 12.452 0 0 1 263.75 69.35 A 5.626 5.626 0 0 1 260.165 70.6 A 7.012 7.012 0 0 1 260.1 70.6 Q 259.593 70.6 259.3 70.528 A 1.265 1.265 0 0 1 259.2 70.5 Q 258.9 70.4 258.55 70.25 A 3.957 3.957 0 0 0 258.15 70.105 A 5.275 5.275 0 0 0 257.75 70 Q 257.344 69.91 256.651 69.901 A 12.003 12.003 0 0 0 256.5 69.9 Q 254.1 69.9 252.45 68.35 A 10.546 10.546 0 0 1 250.498 65.834 A 13.285 13.285 0 0 1 249.8 64.4 A 21.946 21.946 0 0 1 248.628 60.632 A 25.855 25.855 0 0 1 248.35 59.15 A 37.551 37.551 0 0 1 247.974 55.889 A 30.276 30.276 0 0 1 247.9 53.8 A 99.506 99.506 0 0 1 248.236 45.485 A 85.918 85.918 0 0 1 248.55 42.4 A 51.113 51.113 0 0 1 249.379 37.462 A 37.283 37.283 0 0 1 250.7 32.85 A 22.925 22.925 0 0 1 252.067 29.759 Q 253.175 27.705 254.6 26.25 A 7.944 7.944 0 0 1 257.967 24.152 A 8.239 8.239 0 0 1 260.4 23.8 Q 262.4 23.8 263.45 24.15 A 15.45 15.45 0 0 1 264.911 24.718 A 13.41 13.41 0 0 1 265.4 24.95 Q 266.3 25.4 267.35 25.9 A 6.609 6.609 0 0 0 268.151 26.213 Q 268.981 26.482 270.139 26.674 A 21.816 21.816 0 0 0 270.3 26.7 A 9.514 9.514 0 0 1 271.699 27.663 Q 272.46 28.302 272.949 29.038 A 5.376 5.376 0 0 1 273.25 29.55 Q 274.1 31.2 274.35 33.1 Q 274.6 35 274.5 37.05 Q 274.4 39.1 274.7 41.1 A 0.083 0.083 0 0 0 274.723 41.15 Q 274.796 41.238 275.101 41.378 A 4.91 4.91 0 0 0 275.15 41.4 A 38.964 38.964 0 0 0 275.572 41.585 Q 275.863 41.709 276.2 41.85 Q 276.8 42.1 277.25 42.55 A 1.518 1.518 0 0 1 277.693 43.529 A 2.041 2.041 0 0 1 277.7 43.7 Z M 136.81 38.05 A 1.327 1.327 0 0 0 135.9 38.7 A 4.443 4.443 0 0 0 135.659 39.112 Q 135.392 39.623 135.15 40.35 Q 134.8 41.4 134.25 42.6 Q 133.7 43.8 132.8 45.15 A 10.009 10.009 0 0 1 131.806 46.403 A 12.925 12.925 0 0 1 130.4 47.7 A 57.456 57.456 0 0 0 130.4 47.488 A 52.632 52.632 0 0 0 130.3 44.4 A 42.75 42.75 0 0 0 130.211 43.228 A 35.446 35.446 0 0 0 130 41.4 Q 129.7 38.9 129.2 36.45 A 15.956 15.956 0 0 0 129.157 36.248 Q 128.841 34.796 128.341 33.84 A 4.474 4.474 0 0 0 127.7 32.9 A 99.027 99.027 0 0 0 127.373 32.524 A 109.568 109.568 0 0 0 124.95 29.85 A 31.365 31.365 0 0 0 124.176 29.051 A 26.954 26.954 0 0 0 122 27.1 A 19.366 19.366 0 0 0 121.623 26.806 A 17.238 17.238 0 0 0 118.9 25.1 A 8.363 8.363 0 0 0 118.15 24.769 A 6.81 6.81 0 0 0 115.7 24.3 Q 114.948 24.3 114.097 24.484 A 11.39 11.39 0 0 0 112.8 24.85 A 6.505 6.505 0 0 0 111.366 25.552 A 7.824 7.824 0 0 0 109.9 26.8 Q 109.047 27.784 108.151 29.286 A 32.858 32.858 0 0 0 107.2 31 A 34.917 34.917 0 0 0 106.032 33.496 A 44.5 44.5 0 0 0 104.7 37.1 Q 103.6 40.5 102.85 44.2 Q 102.1 47.9 102.1 51.5 A 30.004 30.004 0 0 0 102.111 52.293 A 33.648 33.648 0 0 0 102.4 55.85 Q 102.7 58.1 103.55 60.25 A 13.648 13.648 0 0 0 103.926 61.113 A 14.937 14.937 0 0 0 106 64.3 A 13.065 13.065 0 0 0 107.635 65.919 A 16.201 16.201 0 0 0 110.1 67.6 A 9.055 9.055 0 0 0 110.208 67.666 Q 110.589 67.897 111.035 68.117 A 15.121 15.121 0 0 0 112 68.55 Q 113.1 69 114.3 69.35 Q 115.5 69.7 116.65 69.9 A 16.791 16.791 0 0 0 116.968 69.952 Q 117.439 70.025 117.865 70.062 A 9.695 9.695 0 0 0 118.7 70.1 A 9.263 9.263 0 0 0 118.711 70.1 A 7.658 7.658 0 0 0 123.45 68.55 Q 125.5 67 126.95 64.8 A 22.573 22.573 0 0 0 127.471 63.971 A 19.827 19.827 0 0 0 129.2 60.3 A 38.529 38.529 0 0 0 129.235 60.198 Q 130.004 57.967 130.2 56.5 A 4.11 4.11 0 0 0 130.263 56.194 Q 130.291 56.028 130.314 55.832 A 10.262 10.262 0 0 0 130.35 55.45 A 41.221 41.221 0 0 0 130.369 55.186 Q 130.418 54.498 130.5 53.1 Q 131.5 52.3 132.45 51.4 Q 133.4 50.5 134.2 49.4 Q 135.6 47.6 136.85 45.15 A 11.84 11.84 0 0 0 137.724 42.882 A 14.154 14.154 0 0 0 138.2 39.6 A 2.075 2.075 0 0 0 138.176 39.296 Q 138.13 38.991 138 38.6 A 1.578 1.578 0 0 0 137.975 38.531 Q 137.77 38 137.3 38 A 2.264 2.264 0 0 0 136.81 38.05 Z M 189.01 38.05 A 1.327 1.327 0 0 0 188.1 38.7 A 4.443 4.443 0 0 0 187.859 39.112 Q 187.592 39.623 187.35 40.35 Q 187 41.4 186.45 42.6 Q 185.9 43.8 185 45.15 A 10.009 10.009 0 0 1 184.006 46.403 A 12.925 12.925 0 0 1 182.6 47.7 A 57.456 57.456 0 0 0 182.6 47.488 A 52.632 52.632 0 0 0 182.5 44.4 A 42.75 42.75 0 0 0 182.411 43.228 A 35.446 35.446 0 0 0 182.2 41.4 Q 181.9 38.9 181.4 36.45 A 15.956 15.956 0 0 0 181.357 36.248 Q 181.041 34.796 180.541 33.84 A 4.474 4.474 0 0 0 179.9 32.9 A 99.027 99.027 0 0 0 179.573 32.524 A 109.568 109.568 0 0 0 177.15 29.85 A 31.365 31.365 0 0 0 176.376 29.051 A 26.954 26.954 0 0 0 174.2 27.1 A 19.366 19.366 0 0 0 173.823 26.806 A 17.238 17.238 0 0 0 171.1 25.1 A 8.363 8.363 0 0 0 170.35 24.769 A 6.81 6.81 0 0 0 167.9 24.3 Q 167.148 24.3 166.297 24.484 A 11.39 11.39 0 0 0 165 24.85 A 6.505 6.505 0 0 0 163.566 25.552 A 7.824 7.824 0 0 0 162.1 26.8 Q 161.247 27.784 160.351 29.286 A 32.858 32.858 0 0 0 159.4 31 A 34.917 34.917 0 0 0 158.232 33.496 A 44.5 44.5 0 0 0 156.9 37.1 Q 155.8 40.5 155.05 44.2 Q 154.3 47.9 154.3 51.5 A 30.004 30.004 0 0 0 154.311 52.293 A 33.648 33.648 0 0 0 154.6 55.85 Q 154.9 58.1 155.75 60.25 A 13.648 13.648 0 0 0 156.126 61.113 A 14.937 14.937 0 0 0 158.2 64.3 A 13.065 13.065 0 0 0 159.835 65.919 A 16.201 16.201 0 0 0 162.3 67.6 A 9.055 9.055 0 0 0 162.408 67.666 Q 162.789 67.897 163.235 68.117 A 15.121 15.121 0 0 0 164.2 68.55 Q 165.3 69 166.5 69.35 Q 167.7 69.7 168.85 69.9 A 16.791 16.791 0 0 0 169.168 69.952 Q 169.639 70.025 170.065 70.062 A 9.695 9.695 0 0 0 170.9 70.1 A 9.263 9.263 0 0 0 170.911 70.1 A 7.658 7.658 0 0 0 175.65 68.55 Q 177.7 67 179.15 64.8 A 22.573 22.573 0 0 0 179.671 63.971 A 19.827 19.827 0 0 0 181.4 60.3 A 38.529 38.529 0 0 0 181.435 60.198 Q 182.204 57.967 182.4 56.5 A 4.11 4.11 0 0 0 182.463 56.194 Q 182.491 56.028 182.514 55.832 A 10.262 10.262 0 0 0 182.55 55.45 A 41.221 41.221 0 0 0 182.569 55.186 Q 182.618 54.498 182.7 53.1 Q 183.7 52.3 184.65 51.4 Q 185.6 50.5 186.4 49.4 Q 187.8 47.6 189.05 45.15 A 11.84 11.84 0 0 0 189.924 42.882 A 14.154 14.154 0 0 0 190.4 39.6 A 2.075 2.075 0 0 0 190.376 39.296 Q 190.33 38.991 190.2 38.6 A 1.578 1.578 0 0 0 190.175 38.531 Q 189.97 38 189.5 38 A 2.264 2.264 0 0 0 189.01 38.05 Z M 36.5 12.2 L 35.4 40.5 Q 35.4 44 36 45.7 A 2.263 2.263 0 0 0 37.357 47.069 Q 37.811 47.255 38.401 47.337 A 7.321 7.321 0 0 0 39.4 47.4 Q 41.368 47.4 43.523 45.832 A 15.349 15.349 0 0 0 45.15 44.45 A 31.925 31.925 0 0 0 48.682 40.372 A 40.508 40.508 0 0 0 50.75 37.25 Q 53.3 33 55 28.25 Q 56.7 23.5 56.7 19.9 A 16.618 16.618 0 0 0 56.469 17.036 Q 56.188 15.435 55.568 14.158 A 8.288 8.288 0 0 0 54.55 12.55 Q 52.4 9.9 49.25 8.6 Q 46.1 7.3 42.6 7.05 A 105.995 105.995 0 0 0 39.374 6.866 Q 37.846 6.804 36.481 6.8 A 63.49 63.49 0 0 0 36.3 6.8 Q 35.747 6.8 34.474 6.927 A 64.141 64.141 0 0 0 34.25 6.95 A 34.412 34.412 0 0 0 33.261 7.068 Q 32.1 7.223 30.55 7.491 A 105.549 105.549 0 0 0 30.5 7.5 Q 33.8 8.3 35.2 9.7 A 7.34 7.34 0 0 1 35.772 10.337 Q 36.507 11.268 36.507 12.052 A 1.634 1.634 0 0 1 36.5 12.2 Z M 269 41.1 L 269 40.2 Q 269 39.358 268.883 38.281 A 28.507 28.507 0 0 0 268.8 37.6 A 12.693 12.693 0 0 0 268.331 35.463 A 11.284 11.284 0 0 0 268.1 34.8 Q 267.6 33.5 266.6 32.6 A 3.376 3.376 0 0 0 265.123 31.838 Q 264.565 31.7 263.9 31.7 Q 261.1 31.7 259.35 34.25 Q 257.6 36.8 256.6 40.25 Q 255.6 43.7 255.3 47.35 A 132.099 132.099 0 0 0 255.169 49.078 Q 255.04 50.952 255.009 52.314 A 35.477 35.477 0 0 0 255 53.1 A 42.508 42.508 0 0 0 255.021 54.391 Q 255.039 54.968 255.071 55.607 A 83.024 83.024 0 0 0 255.15 56.95 A 34.229 34.229 0 0 0 255.495 60.055 A 29.464 29.464 0 0 0 255.7 61.2 Q 256.1 63.2 256.85 64.6 A 3.704 3.704 0 0 0 257.28 65.245 Q 257.919 66 258.8 66 A 5.938 5.938 0 0 0 260.785 65.684 A 4.95 4.95 0 0 0 263.25 63.75 Q 264.703 61.641 265.497 58.564 A 23.508 23.508 0 0 0 265.6 58.15 A 48.141 48.141 0 0 0 266.487 53.307 A 57.318 57.318 0 0 0 266.75 50.95 Q 267.1 47.1 267.4 43.9 Q 267.6 42.2 268.3 41.75 A 6.371 6.371 0 0 0 268.538 41.59 Q 269 41.262 269 41.1 Z M 208.1 39 A 14.42 14.42 0 0 0 208.062 37.98 Q 208.025 37.461 207.952 36.888 A 24.485 24.485 0 0 0 207.9 36.5 Q 207.7 35.1 207.2 33.85 A 5.586 5.586 0 0 0 206.036 32.025 A 5.378 5.378 0 0 0 205.75 31.75 A 3.315 3.315 0 0 0 203.743 30.913 A 4.35 4.35 0 0 0 203.4 30.9 A 4.836 4.836 0 0 0 200.758 31.7 A 6.751 6.751 0 0 0 199.85 32.4 Q 198.49 33.636 197.402 35.722 A 19.017 19.017 0 0 0 196.95 36.65 A 23.249 23.249 0 0 0 195.952 39.286 Q 195.372 41.128 194.95 43.35 Q 194.212 47.238 194.2 52.144 A 66.305 66.305 0 0 0 194.2 52.3 Q 194.2 54.4 194.35 56.65 Q 194.5 58.9 194.85 60.7 A 11.116 11.116 0 0 0 195.217 62.112 Q 195.516 63.006 195.95 63.7 A 3.082 3.082 0 0 0 196.463 64.333 A 2.047 2.047 0 0 0 197.9 64.9 A 4.59 4.59 0 0 0 200.956 63.734 A 6.565 6.565 0 0 0 201.6 63.1 A 13.416 13.416 0 0 0 203.306 60.663 A 17.445 17.445 0 0 0 204.25 58.65 Q 205.3 56 205.85 53.15 A 47.73 47.73 0 0 0 206.199 51.118 Q 206.348 50.115 206.428 49.226 A 24.245 24.245 0 0 0 206.5 48.2 Q 206.594 45.461 206.778 44.372 A 5.896 5.896 0 0 1 206.8 44.25 A 12.855 12.855 0 0 1 206.888 43.827 Q 207.023 43.227 207.158 42.971 A 0.812 0.812 0 0 1 207.2 42.9 Q 207.8 42.1 207.95 41 A 17.444 17.444 0 0 0 208.062 39.952 A 12.731 12.731 0 0 0 208.1 39 Z M 203.607 77.943 A 25.796 25.796 0 0 0 203.35 78.3 Q 201.3 81.2 199.8 84.6 Q 198.3 88 197.45 91.5 A 33.375 33.375 0 0 0 196.869 94.429 Q 196.65 95.888 196.609 97.202 A 19.194 19.194 0 0 0 196.6 97.8 Q 196.6 98.8 196.8 100 A 9.877 9.877 0 0 0 197.341 101.985 A 9.098 9.098 0 0 0 197.45 102.25 Q 197.9 103.3 198.75 104 A 3.061 3.061 0 0 0 200.541 104.692 A 3.927 3.927 0 0 0 200.8 104.7 A 4.099 4.099 0 0 0 203.923 103.336 A 5.472 5.472 0 0 0 204.25 102.95 A 12.358 12.358 0 0 0 205.823 100.237 A 15.237 15.237 0 0 0 206.35 98.8 Q 207.1 96.4 207.35 93.9 A 69.423 69.423 0 0 0 207.482 92.435 Q 207.6 90.931 207.6 89.9 L 207.6 89 A 25.616 25.616 0 0 1 207.603 88.658 Q 207.61 88.155 207.634 87.275 A 273.803 273.803 0 0 1 207.65 86.7 Q 207.688 85.398 207.697 83.306 A 316.89 316.89 0 0 0 207.7 81.95 L 207.7 73.8 Q 205.544 75.3 203.607 77.943 Z M 124.6 49.2 L 124.6 47.3 Q 124.6 46.9 124.55 45.5 A 58.093 58.093 0 0 0 124.498 44.38 Q 124.444 43.387 124.35 42.2 Q 124.2 40.3 123.85 38.25 A 21.471 21.471 0 0 0 123.312 35.882 A 17.586 17.586 0 0 0 122.85 34.5 Q 122.2 32.8 121.2 31.65 Q 120.2 30.5 118.7 30.5 A 3.942 3.942 0 0 0 116.819 30.992 A 5.726 5.726 0 0 0 115.8 31.7 A 10.629 10.629 0 0 0 114.262 33.347 A 13.928 13.928 0 0 0 113.3 34.8 A 16.819 16.819 0 0 0 112.013 37.614 A 20.423 20.423 0 0 0 111.55 39.1 A 18.396 18.396 0 0 0 110.931 42.789 A 16.537 16.537 0 0 0 110.9 43.8 A 15.88 15.88 0 0 0 111.027 45.88 Q 111.332 48.188 112.378 49.503 A 4.64 4.64 0 0 0 112.5 49.65 A 4.658 4.658 0 0 0 114.32 50.906 Q 115.101 51.222 116.091 51.37 A 12.963 12.963 0 0 0 118 51.5 A 15.354 15.354 0 0 0 119.949 51.384 Q 120.934 51.258 121.758 50.994 A 7.434 7.434 0 0 0 122.75 50.6 A 14.505 14.505 0 0 0 123.373 50.28 Q 124.588 49.614 124.6 49.208 A 0.273 0.273 0 0 0 124.6 49.2 Z M 176.8 49.2 L 176.8 47.3 Q 176.8 46.9 176.75 45.5 A 58.093 58.093 0 0 0 176.698 44.38 Q 176.644 43.387 176.55 42.2 Q 176.4 40.3 176.05 38.25 A 21.471 21.471 0 0 0 175.512 35.882 A 17.586 17.586 0 0 0 175.05 34.5 Q 174.4 32.8 173.4 31.65 Q 172.4 30.5 170.9 30.5 A 3.942 3.942 0 0 0 169.019 30.992 A 5.726 5.726 0 0 0 168 31.7 A 10.629 10.629 0 0 0 166.462 33.347 A 13.928 13.928 0 0 0 165.5 34.8 A 16.819 16.819 0 0 0 164.213 37.614 A 20.423 20.423 0 0 0 163.75 39.1 A 18.396 18.396 0 0 0 163.131 42.789 A 16.537 16.537 0 0 0 163.1 43.8 A 15.88 15.88 0 0 0 163.227 45.88 Q 163.532 48.188 164.578 49.503 A 4.64 4.64 0 0 0 164.7 49.65 A 4.658 4.658 0 0 0 166.52 50.906 Q 167.301 51.222 168.291 51.37 A 12.963 12.963 0 0 0 170.2 51.5 A 15.354 15.354 0 0 0 172.149 51.384 Q 173.134 51.258 173.958 50.994 A 7.434 7.434 0 0 0 174.95 50.6 A 14.505 14.505 0 0 0 175.573 50.28 Q 176.788 49.614 176.8 49.208 A 0.273 0.273 0 0 0 176.8 49.2 Z M 110 55.1 L 109.9 57.2 A 8.971 8.971 0 0 0 110.042 58.76 A 10.769 10.769 0 0 0 110.2 59.5 Q 110.5 60.7 111.15 61.7 A 4.677 4.677 0 0 0 112.352 62.945 A 5.941 5.941 0 0 0 113 63.35 A 5.046 5.046 0 0 0 114.303 63.827 Q 115.072 64 116 64 A 9.508 9.508 0 0 0 117.741 63.849 Q 118.784 63.654 119.637 63.21 A 5.939 5.939 0 0 0 119.75 63.15 A 7.949 7.949 0 0 0 121.453 61.912 A 6.984 6.984 0 0 0 122.25 61 Q 123.2 59.7 123.65 58.2 A 12.004 12.004 0 0 0 123.95 56.988 Q 124.1 56.194 124.1 55.5 Q 122.9 56.3 120.8 56.7 A 28.855 28.855 0 0 1 119.439 56.928 Q 118.219 57.1 117.3 57.1 A 29.43 29.43 0 0 1 115.807 57.065 Q 114.403 56.993 113.453 56.776 A 7.024 7.024 0 0 1 113.15 56.7 A 7.832 7.832 0 0 1 111.882 56.22 Q 110.983 55.794 110 55.1 Z M 162.2 55.1 L 162.1 57.2 A 8.971 8.971 0 0 0 162.242 58.76 A 10.769 10.769 0 0 0 162.4 59.5 Q 162.7 60.7 163.35 61.7 A 4.677 4.677 0 0 0 164.552 62.945 A 5.941 5.941 0 0 0 165.2 63.35 A 5.046 5.046 0 0 0 166.503 63.827 Q 167.272 64 168.2 64 A 9.508 9.508 0 0 0 169.941 63.849 Q 170.984 63.654 171.837 63.21 A 5.939 5.939 0 0 0 171.95 63.15 A 7.949 7.949 0 0 0 173.653 61.912 A 6.984 6.984 0 0 0 174.45 61 Q 175.4 59.7 175.85 58.2 A 12.004 12.004 0 0 0 176.15 56.988 Q 176.3 56.194 176.3 55.5 Q 175.1 56.3 173 56.7 A 28.855 28.855 0 0 1 171.639 56.928 Q 170.419 57.1 169.5 57.1 A 29.43 29.43 0 0 1 168.007 57.065 Q 166.603 56.993 165.653 56.776 A 7.024 7.024 0 0 1 165.35 56.7 A 7.832 7.832 0 0 1 164.082 56.22 Q 163.183 55.794 162.2 55.1 Z" vector-effect="non-scaling-stroke"/></g></svg>